<svg xmlns="http://www.w3.org/2000/svg" viewBox="0 0 1200 800" role="img" aria-labelledby="title desc">
  <title id="title">School Admission Campaigns</title>
  <desc id="desc">School admission marketing artwork with poster boards and parent engagement cards.</desc>
  <defs>
    <linearGradient id="bg" x1="0" y1="0" x2="1" y2="1">
      <stop offset="0" stop-color="#0f172a"/>
      <stop offset=".55" stop-color="#1d4ed8"/>
      <stop offset="1" stop-color="#facc15"/>
    </linearGradient>
  </defs>
  <rect width="1200" height="800" fill="url(#bg)"/>
  <rect x="120" y="130" width="360" height="520" rx="34" fill="#ffffff"/>
  <rect x="180" y="190" width="240" height="30" rx="15" fill="#1d4ed8"/>
  <rect x="180" y="255" width="205" height="22" rx="11" fill="#64748b"/>
  <rect x="180" y="310" width="240" height="220" rx="22" fill="#dbeafe"/>
  <path d="M215 492 L298 382 L365 492 Z" fill="#22c55e"/>
  <circle cx="338" cy="370" r="34" fill="#facc15"/>
  <rect x="540" y="180" width="520" height="110" rx="28" fill="#ffffff" opacity=".92"/>
  <rect x="590" y="224" width="310" height="22" rx="11" fill="#0f172a"/>
  <rect x="540" y="340" width="240" height="180" rx="28" fill="#ffffff" opacity=".18"/>
  <rect x="820" y="340" width="240" height="180" rx="28" fill="#ffffff" opacity=".18"/>
  <circle cx="625" cy="425" r="42" fill="#facc15"/>
  <circle cx="910" cy="425" r="42" fill="#38bdf8"/>
  <rect x="590" y="492" width="140" height="18" rx="9" fill="#ffffff"/>
  <rect x="875" y="492" width="140" height="18" rx="9" fill="#ffffff"/>
  <text x="120" y="720" fill="#ffffff" font-family="Arial, sans-serif" font-size="52" font-weight="700">Admission Campaign</text>
</svg>
