<svg xmlns="http://www.w3.org/2000/svg" viewBox="0 0 1200 800" role="img" aria-labelledby="title desc">
  <title id="title">Freelance Digital Marketing</title>
  <desc id="desc">Dashboard style marketing campaign artwork with growth metrics and social media cards.</desc>
  <defs>
    <linearGradient id="bg" x1="0" y1="0" x2="1" y2="1">
      <stop offset="0" stop-color="#111827"/>
      <stop offset="0.58" stop-color="#164e63"/>
      <stop offset="1" stop-color="#f97316"/>
    </linearGradient>
  </defs>
  <rect width="1200" height="800" fill="url(#bg)"/>
  <circle cx="1000" cy="120" r="170" fill="#22d3ee" opacity=".22"/>
  <circle cx="120" cy="720" r="230" fill="#fb923c" opacity=".18"/>
  <rect x="120" y="110" width="960" height="580" rx="42" fill="#ffffff" opacity=".1" stroke="#ffffff" stroke-opacity=".28"/>
  <rect x="170" y="170" width="430" height="190" rx="26" fill="#f8fafc"/>
  <rect x="640" y="170" width="390" height="420" rx="26" fill="#0f172a" opacity=".82"/>
  <rect x="210" y="215" width="260" height="28" rx="14" fill="#0f172a"/>
  <rect x="210" y="270" width="330" height="22" rx="11" fill="#64748b"/>
  <path d="M210 330 C280 295 350 340 420 285 S530 250 570 285" fill="none" stroke="#16a34a" stroke-width="18" stroke-linecap="round"/>
  <rect x="190" y="420" width="120" height="170" rx="18" fill="#38bdf8"/>
  <rect x="345" y="380" width="120" height="210" rx="18" fill="#fb923c"/>
  <rect x="500" y="315" width="120" height="275" rx="18" fill="#22c55e"/>
  <circle cx="760" cy="300" r="70" fill="#38bdf8"/>
  <circle cx="905" cy="300" r="70" fill="#fb923c"/>
  <rect x="720" y="430" width="260" height="24" rx="12" fill="#e5e7eb"/>
  <rect x="720" y="480" width="210" height="24" rx="12" fill="#94a3b8"/>
  <text x="170" y="660" fill="#ffffff" font-family="Arial, sans-serif" font-size="54" font-weight="700">Digital Marketing</text>
</svg>
