<svg xmlns="http://www.w3.org/2000/svg" viewBox="0 0 1200 800" role="img" aria-labelledby="title desc">
  <title id="title">Restaurant Promotion Concepts</title>
  <desc id="desc">Restaurant promotion artwork with food brand visibility and local marketing elements.</desc>
  <defs>
    <linearGradient id="bg" x1="0" y1="0" x2="1" y2="1">
      <stop offset="0" stop-color="#18181b"/>
      <stop offset=".55" stop-color="#7f1d1d"/>
      <stop offset="1" stop-color="#f59e0b"/>
    </linearGradient>
  </defs>
  <rect width="1200" height="800" fill="url(#bg)"/>
  <circle cx="605" cy="355" r="190" fill="#f8fafc"/>
  <circle cx="605" cy="355" r="138" fill="#fde68a"/>
  <circle cx="560" cy="315" r="34" fill="#ef4444"/>
  <circle cx="675" cy="390" r="34" fill="#ef4444"/>
  <path d="M470 250 C555 330 645 210 760 300" fill="none" stroke="#16a34a" stroke-width="22" stroke-linecap="round"/>
  <rect x="120" y="130" width="270" height="390" rx="32" fill="#ffffff" opacity=".13"/>
  <rect x="170" y="185" width="170" height="24" rx="12" fill="#ffffff"/>
  <rect x="170" y="245" width="125" height="20" rx="10" fill="#fbbf24"/>
  <rect x="170" y="300" width="180" height="190" rx="24" fill="#ffffff" opacity=".16"/>
  <rect x="815" y="160" width="260" height="420" rx="32" fill="#111827" opacity=".78"/>
  <rect x="865" y="220" width="160" height="22" rx="11" fill="#ffffff"/>
  <rect x="865" y="280" width="120" height="18" rx="9" fill="#fbbf24"/>
  <rect x="865" y="445" width="160" height="52" rx="26" fill="#ef4444"/>
  <text x="130" y="690" fill="#ffffff" font-family="Arial, sans-serif" font-size="52" font-weight="700">Restaurant Growth</text>
</svg>
