<svg xmlns="http://www.w3.org/2000/svg" viewBox="0 0 1200 800" role="img" aria-labelledby="title desc">
  <title id="title">Social Media Creatives</title>
  <desc id="desc">Social media creative design artwork with poster thumbnails and content cards.</desc>
  <defs>
    <linearGradient id="bg" x1="0" y1="0" x2="1" y2="1">
      <stop offset="0" stop-color="#312e81"/>
      <stop offset=".55" stop-color="#be185d"/>
      <stop offset="1" stop-color="#f97316"/>
    </linearGradient>
  </defs>
  <rect width="1200" height="800" fill="url(#bg)"/>
  <rect x="140" y="140" width="260" height="360" rx="34" fill="#ffffff" opacity=".94"/>
  <rect x="470" y="95" width="300" height="430" rx="38" fill="#111827" opacity=".84"/>
  <rect x="835" y="180" width="230" height="310" rx="34" fill="#ffffff" opacity=".9"/>
  <rect x="185" y="190" width="170" height="24" rx="12" fill="#111827"/>
  <rect x="185" y="245" width="170" height="170" rx="26" fill="#f97316"/>
  <circle cx="270" cy="330" r="52" fill="#facc15"/>
  <rect x="525" y="160" width="190" height="28" rx="14" fill="#ffffff"/>
  <rect x="525" y="230" width="190" height="190" rx="28" fill="#be185d"/>
  <path d="M565 370 L620 285 L690 370 Z" fill="#38bdf8"/>
  <rect x="880" y="235" width="140" height="22" rx="11" fill="#111827"/>
  <rect x="880" y="295" width="140" height="120" rx="22" fill="#6366f1"/>
  <text x="140" y="700" fill="#ffffff" font-family="Arial, sans-serif" font-size="52" font-weight="700">Social Creatives</text>
</svg>
