<svg xmlns="http://www.w3.org/2000/svg" viewBox="0 0 1200 800" role="img" aria-labelledby="title desc">
  <title id="title">AI-Powered Marketing Ideas</title>
  <desc id="desc">AI marketing strategy artwork with connected nodes and campaign planning cards.</desc>
  <defs>
    <linearGradient id="bg" x1="0" y1="0" x2="1" y2="1">
      <stop offset="0" stop-color="#020617"/>
      <stop offset=".58" stop-color="#4c1d95"/>
      <stop offset="1" stop-color="#06b6d4"/>
    </linearGradient>
  </defs>
  <rect width="1200" height="800" fill="url(#bg)"/>
  <rect x="150" y="150" width="900" height="500" rx="44" fill="#ffffff" opacity=".1" stroke="#ffffff" stroke-opacity=".24"/>
  <circle cx="600" cy="380" r="110" fill="#22d3ee" opacity=".9"/>
  <text x="548" y="408" fill="#020617" font-family="Arial, sans-serif" font-size="76" font-weight="800">AI</text>
  <g stroke="#ffffff" stroke-width="8" opacity=".78">
    <path d="M600 270 L420 230"/>
    <path d="M690 315 L850 235"/>
    <path d="M710 445 L880 520"/>
    <path d="M510 445 L340 520"/>
  </g>
  <g fill="#ffffff">
    <circle cx="420" cy="230" r="44"/>
    <circle cx="850" cy="235" r="44"/>
    <circle cx="880" cy="520" r="44"/>
    <circle cx="340" cy="520" r="44"/>
  </g>
  <rect x="250" y="205" width="140" height="18" rx="9" fill="#a78bfa"/>
  <rect x="750" y="210" width="140" height="18" rx="9" fill="#22d3ee"/>
  <rect x="760" y="555" width="180" height="18" rx="9" fill="#a78bfa"/>
  <rect x="250" y="555" width="180" height="18" rx="9" fill="#22d3ee"/>
  <text x="150" y="720" fill="#ffffff" font-family="Arial, sans-serif" font-size="52" font-weight="700">AI Marketing Ideas</text>
</svg>
